<svg xmlns="http://www.w3.org/2000/svg" version="1.1" xmlns:xlink="http://www.w3.org/1999/xlink" xmlns:svgjs="http://svgjs.com/svgjs" width="2560" height="1080" preserveAspectRatio="none" viewBox="0 0 2560 1080"><g mask="url(&quot;#SvgjsMask1659&quot;)" fill="none"><rect width="2560" height="1080" x="0" y="0" fill="rgba(242, 242, 242, 1)"></rect><use xlink:href="#SvgjsG1666" transform="translate(0, 0)" fill="rgba(193, 197, 201, 0.55)"></use><use xlink:href="#SvgjsG1666" transform="translate(0, 500)" fill="rgba(193, 197, 201, 0.55)"></use><use xlink:href="#SvgjsG1666" transform="translate(0, 1000)" fill="rgba(193, 197, 201, 0.55)"></use><use xlink:href="#SvgjsG1666" transform="translate(500, 0)" fill="rgba(193, 197, 201, 0.55)"></use><use xlink:href="#SvgjsG1666" transform="translate(500, 500)" fill="rgba(193, 197, 201, 0.55)"></use><use xlink:href="#SvgjsG1666" transform="translate(500, 1000)" fill="rgba(193, 197, 201, 0.55)"></use><use xlink:href="#SvgjsG1666" transform="translate(1000, 0)" fill="rgba(193, 197, 201, 0.55)"></use><use xlink:href="#SvgjsG1666" transform="translate(1000, 500)" fill="rgba(193, 197, 201, 0.55)"></use><use xlink:href="#SvgjsG1666" transform="translate(1000, 1000)" fill="rgba(193, 197, 201, 0.55)"></use><use xlink:href="#SvgjsG1666" transform="translate(1500, 0)" fill="rgba(193, 197, 201, 0.55)"></use><use xlink:href="#SvgjsG1666" transform="translate(1500, 500)" fill="rgba(193, 197, 201, 0.55)"></use><use xlink:href="#SvgjsG1666" transform="translate(1500, 1000)" fill="rgba(193, 197, 201, 0.55)"></use><use xlink:href="#SvgjsG1666" transform="translate(2000, 0)" fill="rgba(193, 197, 201, 0.55)"></use><use xlink:href="#SvgjsG1666" transform="translate(2000, 500)" fill="rgba(193, 197, 201, 0.55)"></use><use xlink:href="#SvgjsG1666" transform="translate(2000, 1000)" fill="rgba(193, 197, 201, 0.55)"></use><use xlink:href="#SvgjsG1666" transform="translate(2500, 0)" fill="rgba(193, 197, 201, 0.55)"></use><use xlink:href="#SvgjsG1666" transform="translate(2500, 500)" fill="rgba(193, 197, 201, 0.55)"></use><use xlink:href="#SvgjsG1666" transform="translate(2500, 1000)" fill="rgba(193, 197, 201, 0.55)"></use></g><defs><mask id="SvgjsMask1659"><rect width="2560" height="1080" fill="#ffffff"></rect></mask><g id="SvgjsG1665"><path d="M15.294 10.895l-6.741-3.979V6.238c0-0.768-0.838-1.102-0.838-1.101-0.542-0.264-0.494-0.834-0.494-0.835 0-0.669 0.598-0.884 0.865-0.883 0.448 0 0.888 0.249 0.935 0.817 0.073 0.893 1.084 0.666 1.083-0.051C10.106 3.508 9.488 2.32 8.079 2.32 6.556 2.32 6.118 3.809 6.118 4.28c0 0.355 0.056 0.683 0.276 1.058 0.373 0.636 1.118 0.736 1.118 1.157v0.421L0.702 10.91C0.03 11.307-0.091 12.15 0.055 12.662c0.142 0.497 0.64 1.089 1.537 1.089h12.729c1.003 0 1.461-0.576 1.604-1.072 0.144-0.51 0.144-1.304-0.632-1.783z m-0.956 1.739H1.612c-0.414 0.016-0.67-0.564-0.261-0.82L7.99 7.938l6.604 3.859c0.41 0.29 0.188 0.836-0.256 0.837z"></path></g><g id="SvgjsG1660"><path d="M15.485 16c-0.323 0-0.64-0.076-0.918-0.203a2.213 2.213 0 0 0-0.948-0.215c-0.334 0-0.658 0.078-0.944 0.215-0.282 0.127-0.595 0.203-0.922 0.203s-0.639-0.076-0.917-0.203a2.208 2.208 0 0 0-0.948-0.215c-0.334 0-0.658 0.078-0.947 0.215-0.279 0.127-0.591 0.203-0.917 0.203-0.327 0-0.64-0.076-0.92-0.203-0.288-0.136-0.61-0.214-0.948-0.215-0.336 0-0.658 0.078-0.945 0.215-0.281 0.127-0.593 0.203-0.92 0.203s-0.638-0.076-0.92-0.203a2.21 2.21 0 0 0-0.945-0.215c-0.339 0-0.66 0.078-0.947 0.215C1.199 15.924 0.887 16 0.56 16v-1.395c0.327 0 0.639-0.074 0.919-0.201a2.256 2.256 0 0 1 0.947-0.211c0.335 0 0.659 0.078 0.945 0.211a2.221 2.221 0 0 0 0.92 0.201 2.226 2.226 0 0 0 0.92-0.201 2.264 2.264 0 0 1 0.945-0.211c0.338 0 0.66 0.078 0.948 0.21a2.216 2.216 0 0 0 0.919 0.202c0.327 0 0.638-0.074 0.918-0.202 0.289-0.132 0.612-0.21 0.947-0.21 0.339 0 0.662 0.078 0.948 0.21 0.279 0.128 0.591 0.202 0.917 0.202s0.639-0.074 0.922-0.202a2.259 2.259 0 0 1 0.944-0.21c0.337 0 0.661 0.078 0.947 0.21a2.219 2.219 0 0 0 0.919 0.202V16zM2.162 7.939c0.499 0 0.905-0.41 0.905-0.913 0-0.504-0.406-0.913-0.905-0.914-0.498 0-0.904 0.409-0.904 0.913 0 0.503 0.405 0.914 0.904 0.914zM6.136 12.081H3.55c-0.381 0-0.712-0.229-0.861-0.559L1.733 9.316a0.915 0.915 0 0 1-0.029-0.228c0-0.53 0.425-0.958 0.947-0.958l2.101-0.003 1.441-0.662c0.022-0.016 0.082-0.03 0.145-0.029 0.247 0 0.45 0.207 0.45 0.454 0 0.154-0.077 0.293-0.193 0.375l-1.568 0.714c-0.104 0.083-0.301 0.094-0.301 0.094h-0.944l0.791 1.776h1.748c0.173 0 0.294 0.06 0.4 0.156l1.714 1.644a0.608 0.608 0 0 1 0.03 0.849c-0.227 0.24-0.603 0.256-0.84 0.031L6.136 12.082z m8.059-2.986c0.033 0.057 0.115 0.08 0.19 0.08 0.145 0 0.264-0.12 0.264-0.271 0-0.072-0.035-0.136-0.068-0.196-1.616-3.118-5.979-2.19-6.514-1.987-0.089 0.034-0.142 0.136-0.142 0.237 0 0.147 0.119 0.267 0.264 0.267 0.045 0 0.067-0.004 0.105-0.016 4.281-0.972 5.675 1.492 5.901 1.886zM14.938 9.376L9.464 12.867 4.482 0c4.459 0.597 10.129 4.099 10.456 9.376z"></path></g><g id="SvgjsG1664"><path d="M9.327 13.591a2.121 2.121 0 0 1 1.218 0.179c0.265 0.116 0.563 0.189 0.876 0.189s0.615-0.073 0.883-0.189a2.116 2.116 0 0 1 1.804 0c0.268 0.116 0.567 0.189 0.878 0.189v1.317c-0.31 0-0.611-0.073-0.877-0.194-0.273-0.125-0.582-0.199-0.902-0.199-0.323 0-0.631 0.073-0.904 0.198a2.095 2.095 0 0 1-1.76 0 2.199 2.199 0 0 0-0.902-0.2c-0.32 0-0.63 0.073-0.906 0.198a2.109 2.109 0 0 1-1.755 0c-0.272-0.125-0.582-0.199-0.904-0.199s-0.633 0.073-0.907 0.198c-0.266 0.121-0.564 0.192-0.875 0.192s-0.608-0.073-0.876-0.194a2.225 2.225 0 0 0-0.905-0.199c-0.324 0-0.633 0.073-0.906 0.198-0.266 0.121-0.564 0.192-0.875 0.192v-1.318c0.313 0 0.611-0.073 0.877-0.189a2.121 2.121 0 0 1 1.812 0c0.265 0.116 0.563 0.189 0.873 0.189s0.611-0.073 0.877-0.189c0.157-0.07 0.32-0.128 0.49-0.16L13.968 12.131c0.271-0.065 0.636-0.253 0.764-0.576 0.025-0.061 0.113-0.079 0.189-0.076 0.134 0.007 0.233 0.124 0.232 0.259 0 0.214-0.163 0.81-1.072 0.994l-4.753 0.858zM2.116 3.148A1.201 1.201 0 1 0 2.119 0.745a1.201 1.201 0 0 0-0.003 2.403"></path><path d="M5.612 12.864c0.061 0.266 0.384 0.524 0.72 0.524 0.422 0 0.765-0.337 0.765-0.765l-0.015-0.124-0.916-3.932a1.023 1.023 0 0 0-0.563-0.59l-1.347-0.809-0.614-2.65L7.43 4.509c0.31 0 0.559-0.247 0.558-0.553s-0.247-0.563-0.558-0.563H1.964c-0.548 0-0.8 0.39-0.735 0.731l0.774 3.512c0.058 0.332 0.276 0.608 0.567 0.754l0.019 0.007 2.252 1.324 0.771 3.142zM15.005 4.102h-6.691v0.416h6.691V4.102z"></path></g><g id="SvgjsG1663"><path d="M7.789 3.311c0.8 0 1.455-0.655 1.455-1.458 0-0.8-0.655-1.455-1.455-1.454s-1.455 0.655-1.454 1.454c0 0.804 0.655 1.457 1.454 1.458M14.938 15.644a2.124 2.124 0 0 1-0.877-0.189c-0.276-0.127-0.582-0.204-0.905-0.204-0.32 0-0.63 0.077-0.904 0.204a2.115 2.115 0 0 1-1.756 0c-0.276-0.127-0.582-0.204-0.906-0.204-0.32 0-0.628 0.077-0.902 0.204a2.128 2.128 0 0 1-1.757 0c-0.276-0.127-0.585-0.204-0.906-0.204-0.32 0-0.628 0.077-0.905 0.204a2.109 2.109 0 0 1-1.753 0c-0.276-0.127-0.585-0.204-0.906-0.204-0.323 0-0.633 0.077-0.905 0.204-0.268 0.122-0.567 0.189-0.878 0.189V14.327c0.313 0 0.611-0.068 0.878-0.189 0.272-0.127 0.582-0.204 0.905-0.203 0.32 0 0.631 0.077 0.906 0.203a2.118 2.118 0 0 0 1.753 0 2.182 2.182 0 0 1 0.905-0.203c0.32 0 0.631 0.077 0.906 0.203a2.131 2.131 0 0 0 1.756 0c0.276-0.127 0.582-0.204 0.901-0.203 0.324 0 0.633 0.077 0.908 0.203a2.131 2.131 0 0 0 1.756 0c0.276-0.127 0.585-0.204 0.904-0.203 0.32 0 0.63 0.077 0.905 0.203 0.269 0.121 0.567 0.189 0.877 0.189v1.317zM9.363 13.079a2.211 2.211 0 0 0-0.675 0.189 2.182 2.182 0 0 1-0.652 0.175v-3.593l1.327-0.873v4.102z"></path><path d="M4.448 9.987h1.68c0-0.305-0.16-0.57-0.407-0.719a0.461 0.461 0 0 1-0.869 0 0.841 0.841 0 0 0-0.404 0.719z m3.095 3.465c-0.215-0.029-0.422-0.095-0.614-0.181a2.124 2.124 0 0 0-0.734-0.196v-1.14H4.355l-0.397-1.779c-0.007-0.058-0.015-0.111-0.015-0.171A1.353 1.353 0 0 1 4.815 8.727l0.002-3.613c0-0.865 0.684-1.562 1.535-1.562l2.847 0.003c0.934 0 1.556 0.783 1.556 1.581v3.901c0.004 0.723-0.941 0.723-0.941 0v-3.622h-0.448l-0.006 2.52H6.217v-2.517h-0.451v3.317c0.097 0.035 0.189 0.08 0.276 0.138l1.506 0.979-0.006 3.6z"></path></g><g id="SvgjsG1661"><path d="M16 13.788a2.347 2.347 0 0 1-0.984-0.217 2.437 2.437 0 0 0-1.014-0.226c-0.364 0-0.71 0.085-1.016 0.225a2.346 2.346 0 0 1-0.984 0.218c-0.35 0-0.686-0.079-0.984-0.218-0.311-0.14-0.658-0.225-1.016-0.225-0.362 0-0.709 0.085-1.017 0.225a2.353 2.353 0 0 1-0.984 0.218c-0.35 0-0.684-0.079-0.986-0.218-0.307-0.14-0.653-0.225-1.012-0.225-0.362 0-0.709 0.085-1.016 0.225a2.359 2.359 0 0 1-0.988 0.218c-0.345 0-0.684-0.079-0.983-0.218-0.307-0.14-0.654-0.225-1.016-0.225-0.36 0-0.705 0.085-1.012 0.225A2.375 2.375 0 0 1 0 13.788v-1.493c0.35 0 0.684-0.082 0.988-0.214a2.386 2.386 0 0 1 1.012-0.229c0.362 0 0.709 0.085 1.016 0.229 0.298 0.133 0.637 0.214 0.982 0.214 0.35 0 0.69-0.082 0.988-0.214a2.394 2.394 0 0 1 1.017-0.229c0.359 0 0.705 0.085 1.011 0.229 0.302 0.133 0.636 0.214 0.987 0.214 0.347 0 0.686-0.082 0.984-0.214a2.396 2.396 0 0 1 1.016-0.229c0.358 0 0.705 0.085 1.016 0.229 0.298 0.133 0.634 0.214 0.984 0.214 0.35 0 0.684-0.082 0.984-0.214a2.386 2.386 0 0 1 1.016-0.229c0.362 0 0.709 0.085 1.015 0.229 0.3 0.133 0.634 0.214 0.984 0.214v1.493z m-2.317-4.224c1.051 0 1.903-0.866 1.903-1.928 0-1.063-0.852-1.925-1.903-1.925-1.053 0-1.904 0.862-1.904 1.925 0 1.063 0.776 1.929 1.904 1.929z"></path><path d="M2.597 10.648c0.148 0.036 0.287 0.088 0.419 0.148a2.38 2.38 0 0 0 0.983 0.218c0.35 0 0.69-0.081 0.988-0.218 0.307-0.141 0.653-0.23 1.016-0.229 0.359 0 0.705 0.089 1.012 0.229 0.302 0.136 0.636 0.218 0.986 0.218 0.347 0 0.686-0.081 0.984-0.218 0.307-0.141 0.654-0.23 1.016-0.229 0.358 0 0.705 0.089 1.016 0.229a2.37 2.37 0 0 0 0.984 0.218 2.429 2.429 0 0 0 0.733-0.117l-3.175-5.794 3.693-0.681c0.542-0.104 0.936-0.535 0.935-1.087 0-0.608-0.49-1.095-1.087-1.095-0.043 0-0.083 0-0.124 0.004l-5.704 1.05c-0.4 0.093-0.931 0.685-0.629 1.413l0.049 0.117 1.489 2.718L2.597 10.648z"></path></g><g id="SvgjsG1662"><path d="M12.31 3.67a1.204 1.204 0 0 0 0-2.407 1.204 1.204 0 0 0 0 2.407M9.367 6.912l2.554-1.26L14.298 7.84c0.105 0.102 0.247 0.166 0.407 0.166a0.577 0.577 0 0 0 0.379-1.008L11.69 3.881a1.312 1.312 0 0 0-0.39-0.262L8.655 2.673 7.457 0.934a0.579 0.579 0 0 0-1.04 0.273c-0.015 0.134 0.02 0.262 0.088 0.368l1.227 1.775c0.055 0.073 0.127 0.131 0.213 0.17l1.419 0.561-2.336 1.193a1.276 1.276 0 0 0-0.622 0.896l0.014 2.134-2.157 0.972a0.746 0.746 0 1 0 0.643 1.345l2.643-1.193a0.749 0.749 0 0 0 0.374-0.501l-0.007-1.327L9.753 9.236l-0.339 2.803-0.003 0.051a0.746 0.746 0 0 0 1.484 0.134l0.395-3.193c0.004-0.015 0.004-0.029 0.005-0.043a0.737 0.737 0 0 0-0.233-0.572L9.367 6.912z"></path><path d="M1.382 8.975a0.756 0.756 0 0 0-0.477 0.96c0.218 0.655 0.717 1.171 1.36 1.416l10.103 3.84c0.646 0.247 1.36 0.193 1.955-0.148a0.753 0.753 0 1 0-0.754-1.309 0.771 0.771 0 0 1-0.663 0.046L2.803 9.935a0.781 0.781 0 0 1-0.466-0.483 0.756 0.756 0 0 0-0.957-0.477"></path></g><g id="SvgjsG1666"><use xlink:href="#SvgjsG1660" transform="translate(0, 0) scale(2)" fill="rgba(193, 197, 201, 0.55)"></use><use xlink:href="#SvgjsG1661" transform="translate(0, 50) scale(2)" fill="rgba(193, 197, 201, 0.55)"></use><use xlink:href="#SvgjsG1662" transform="translate(0, 100) scale(2)" fill="rgba(193, 197, 201, 0.55)"></use><use xlink:href="#SvgjsG1663" transform="translate(0, 150) scale(2)" fill="rgba(193, 197, 201, 0.55)"></use><use xlink:href="#SvgjsG1664" transform="translate(0, 200) scale(2)" fill="rgba(193, 197, 201, 0.55)"></use><use xlink:href="#SvgjsG1660" transform="translate(0, 250) scale(2)" fill="rgba(193, 197, 201, 0.55)"></use><use xlink:href="#SvgjsG1660" transform="translate(0, 300) scale(2)" fill="rgba(193, 197, 201, 0.55)"></use><use xlink:href="#SvgjsG1665" transform="translate(0, 350) scale(2)" fill="rgba(193, 197, 201, 0.55)"></use><use xlink:href="#SvgjsG1663" transform="translate(0, 400) scale(2)" fill="rgba(193, 197, 201, 0.55)"></use><use xlink:href="#SvgjsG1662" transform="translate(0, 450) scale(2)" fill="rgba(193, 197, 201, 0.55)"></use><use xlink:href="#SvgjsG1662" transform="translate(50, 0) scale(2)" fill="rgba(193, 197, 201, 0.55)"></use><use xlink:href="#SvgjsG1662" transform="translate(50, 50) scale(2)" fill="rgba(193, 197, 201, 0.55)"></use><use xlink:href="#SvgjsG1664" transform="translate(50, 100) scale(2)" fill="rgba(193, 197, 201, 0.55)"></use><use xlink:href="#SvgjsG1663" transform="translate(50, 150) scale(2)" fill="rgba(193, 197, 201, 0.55)"></use><use xlink:href="#SvgjsG1662" transform="translate(50, 200) scale(2)" fill="rgba(193, 197, 201, 0.55)"></use><use xlink:href="#SvgjsG1661" transform="translate(50, 250) scale(2)" fill="rgba(193, 197, 201, 0.55)"></use><use xlink:href="#SvgjsG1661" transform="translate(50, 300) scale(2)" fill="rgba(193, 197, 201, 0.55)"></use><use xlink:href="#SvgjsG1661" transform="translate(50, 350) scale(2)" fill="rgba(193, 197, 201, 0.55)"></use><use xlink:href="#SvgjsG1664" transform="translate(50, 400) scale(2)" fill="rgba(193, 197, 201, 0.55)"></use><use xlink:href="#SvgjsG1662" transform="translate(50, 450) scale(2)" fill="rgba(193, 197, 201, 0.55)"></use><use xlink:href="#SvgjsG1664" transform="translate(100, 0) scale(2)" fill="rgba(193, 197, 201, 0.55)"></use><use xlink:href="#SvgjsG1663" transform="translate(100, 50) scale(2)" fill="rgba(193, 197, 201, 0.55)"></use><use xlink:href="#SvgjsG1662" transform="translate(100, 100) scale(2)" fill="rgba(193, 197, 201, 0.55)"></use><use xlink:href="#SvgjsG1664" transform="translate(100, 150) scale(2)" fill="rgba(193, 197, 201, 0.55)"></use><use xlink:href="#SvgjsG1662" transform="translate(100, 200) scale(2)" fill="rgba(193, 197, 201, 0.55)"></use><use xlink:href="#SvgjsG1664" transform="translate(100, 250) scale(2)" fill="rgba(193, 197, 201, 0.55)"></use><use xlink:href="#SvgjsG1660" transform="translate(100, 300) scale(2)" fill="rgba(193, 197, 201, 0.55)"></use><use xlink:href="#SvgjsG1661" transform="translate(100, 350) scale(2)" fill="rgba(193, 197, 201, 0.55)"></use><use xlink:href="#SvgjsG1663" transform="translate(100, 400) scale(2)" fill="rgba(193, 197, 201, 0.55)"></use><use xlink:href="#SvgjsG1665" transform="translate(100, 450) scale(2)" fill="rgba(193, 197, 201, 0.55)"></use><use xlink:href="#SvgjsG1665" transform="translate(150, 0) scale(2)" fill="rgba(193, 197, 201, 0.55)"></use><use xlink:href="#SvgjsG1660" transform="translate(150, 50) scale(2)" fill="rgba(193, 197, 201, 0.55)"></use><use xlink:href="#SvgjsG1665" transform="translate(150, 100) scale(2)" fill="rgba(193, 197, 201, 0.55)"></use><use xlink:href="#SvgjsG1665" transform="translate(150, 150) scale(2)" fill="rgba(193, 197, 201, 0.55)"></use><use xlink:href="#SvgjsG1664" transform="translate(150, 200) scale(2)" fill="rgba(193, 197, 201, 0.55)"></use><use xlink:href="#SvgjsG1661" transform="translate(150, 250) scale(2)" fill="rgba(193, 197, 201, 0.55)"></use><use xlink:href="#SvgjsG1663" transform="translate(150, 300) scale(2)" fill="rgba(193, 197, 201, 0.55)"></use><use xlink:href="#SvgjsG1664" transform="translate(150, 350) scale(2)" fill="rgba(193, 197, 201, 0.55)"></use><use xlink:href="#SvgjsG1662" transform="translate(150, 400) scale(2)" fill="rgba(193, 197, 201, 0.55)"></use><use xlink:href="#SvgjsG1661" transform="translate(150, 450) scale(2)" fill="rgba(193, 197, 201, 0.55)"></use><use xlink:href="#SvgjsG1665" transform="translate(200, 0) scale(2)" fill="rgba(193, 197, 201, 0.55)"></use><use xlink:href="#SvgjsG1663" transform="translate(200, 50) scale(2)" fill="rgba(193, 197, 201, 0.55)"></use><use xlink:href="#SvgjsG1660" transform="translate(200, 100) scale(2)" fill="rgba(193, 197, 201, 0.55)"></use><use xlink:href="#SvgjsG1661" transform="translate(200, 150) scale(2)" fill="rgba(193, 197, 201, 0.55)"></use><use xlink:href="#SvgjsG1663" transform="translate(200, 200) scale(2)" fill="rgba(193, 197, 201, 0.55)"></use><use xlink:href="#SvgjsG1661" transform="translate(200, 250) scale(2)" fill="rgba(193, 197, 201, 0.55)"></use><use xlink:href="#SvgjsG1665" transform="translate(200, 300) scale(2)" fill="rgba(193, 197, 201, 0.55)"></use><use xlink:href="#SvgjsG1663" transform="translate(200, 350) scale(2)" fill="rgba(193, 197, 201, 0.55)"></use><use xlink:href="#SvgjsG1664" transform="translate(200, 400) scale(2)" fill="rgba(193, 197, 201, 0.55)"></use><use xlink:href="#SvgjsG1663" transform="translate(200, 450) scale(2)" fill="rgba(193, 197, 201, 0.55)"></use><use xlink:href="#SvgjsG1662" transform="translate(250, 0) scale(2)" fill="rgba(193, 197, 201, 0.55)"></use><use xlink:href="#SvgjsG1663" transform="translate(250, 50) scale(2)" fill="rgba(193, 197, 201, 0.55)"></use><use xlink:href="#SvgjsG1664" transform="translate(250, 100) scale(2)" fill="rgba(193, 197, 201, 0.55)"></use><use xlink:href="#SvgjsG1662" transform="translate(250, 150) scale(2)" fill="rgba(193, 197, 201, 0.55)"></use><use xlink:href="#SvgjsG1662" transform="translate(250, 200) scale(2)" fill="rgba(193, 197, 201, 0.55)"></use><use xlink:href="#SvgjsG1664" transform="translate(250, 250) scale(2)" fill="rgba(193, 197, 201, 0.55)"></use><use xlink:href="#SvgjsG1660" transform="translate(250, 300) scale(2)" fill="rgba(193, 197, 201, 0.55)"></use><use xlink:href="#SvgjsG1664" transform="translate(250, 350) scale(2)" fill="rgba(193, 197, 201, 0.55)"></use><use xlink:href="#SvgjsG1663" transform="translate(250, 400) scale(2)" fill="rgba(193, 197, 201, 0.55)"></use><use xlink:href="#SvgjsG1664" transform="translate(250, 450) scale(2)" fill="rgba(193, 197, 201, 0.55)"></use><use xlink:href="#SvgjsG1665" transform="translate(300, 0) scale(2)" fill="rgba(193, 197, 201, 0.55)"></use><use xlink:href="#SvgjsG1662" transform="translate(300, 50) scale(2)" fill="rgba(193, 197, 201, 0.55)"></use><use xlink:href="#SvgjsG1661" transform="translate(300, 100) scale(2)" fill="rgba(193, 197, 201, 0.55)"></use><use xlink:href="#SvgjsG1660" transform="translate(300, 150) scale(2)" fill="rgba(193, 197, 201, 0.55)"></use><use xlink:href="#SvgjsG1663" transform="translate(300, 200) scale(2)" fill="rgba(193, 197, 201, 0.55)"></use><use xlink:href="#SvgjsG1665" transform="translate(300, 250) scale(2)" fill="rgba(193, 197, 201, 0.55)"></use><use xlink:href="#SvgjsG1661" transform="translate(300, 300) scale(2)" fill="rgba(193, 197, 201, 0.55)"></use><use xlink:href="#SvgjsG1661" transform="translate(300, 350) scale(2)" fill="rgba(193, 197, 201, 0.55)"></use><use xlink:href="#SvgjsG1660" transform="translate(300, 400) scale(2)" fill="rgba(193, 197, 201, 0.55)"></use><use xlink:href="#SvgjsG1663" transform="translate(300, 450) scale(2)" fill="rgba(193, 197, 201, 0.55)"></use><use xlink:href="#SvgjsG1660" transform="translate(350, 0) scale(2)" fill="rgba(193, 197, 201, 0.55)"></use><use xlink:href="#SvgjsG1664" transform="translate(350, 50) scale(2)" fill="rgba(193, 197, 201, 0.55)"></use><use xlink:href="#SvgjsG1660" transform="translate(350, 100) scale(2)" fill="rgba(193, 197, 201, 0.55)"></use><use xlink:href="#SvgjsG1662" transform="translate(350, 150) scale(2)" fill="rgba(193, 197, 201, 0.55)"></use><use xlink:href="#SvgjsG1661" transform="translate(350, 200) scale(2)" fill="rgba(193, 197, 201, 0.55)"></use><use xlink:href="#SvgjsG1665" transform="translate(350, 250) scale(2)" fill="rgba(193, 197, 201, 0.55)"></use><use xlink:href="#SvgjsG1664" transform="translate(350, 300) scale(2)" fill="rgba(193, 197, 201, 0.55)"></use><use xlink:href="#SvgjsG1663" transform="translate(350, 350) scale(2)" fill="rgba(193, 197, 201, 0.55)"></use><use xlink:href="#SvgjsG1661" transform="translate(350, 400) scale(2)" fill="rgba(193, 197, 201, 0.55)"></use><use xlink:href="#SvgjsG1662" transform="translate(350, 450) scale(2)" fill="rgba(193, 197, 201, 0.55)"></use><use xlink:href="#SvgjsG1661" transform="translate(400, 0) scale(2)" fill="rgba(193, 197, 201, 0.55)"></use><use xlink:href="#SvgjsG1664" transform="translate(400, 50) scale(2)" fill="rgba(193, 197, 201, 0.55)"></use><use xlink:href="#SvgjsG1665" transform="translate(400, 100) scale(2)" fill="rgba(193, 197, 201, 0.55)"></use><use xlink:href="#SvgjsG1660" transform="translate(400, 150) scale(2)" fill="rgba(193, 197, 201, 0.55)"></use><use xlink:href="#SvgjsG1662" transform="translate(400, 200) scale(2)" fill="rgba(193, 197, 201, 0.55)"></use><use xlink:href="#SvgjsG1664" transform="translate(400, 250) scale(2)" fill="rgba(193, 197, 201, 0.55)"></use><use xlink:href="#SvgjsG1664" transform="translate(400, 300) scale(2)" fill="rgba(193, 197, 201, 0.55)"></use><use xlink:href="#SvgjsG1664" transform="translate(400, 350) scale(2)" fill="rgba(193, 197, 201, 0.55)"></use><use xlink:href="#SvgjsG1662" transform="translate(400, 400) scale(2)" fill="rgba(193, 197, 201, 0.55)"></use><use xlink:href="#SvgjsG1664" transform="translate(400, 450) scale(2)" fill="rgba(193, 197, 201, 0.55)"></use><use xlink:href="#SvgjsG1662" transform="translate(450, 0) scale(2)" fill="rgba(193, 197, 201, 0.55)"></use><use xlink:href="#SvgjsG1660" transform="translate(450, 50) scale(2)" fill="rgba(193, 197, 201, 0.55)"></use><use xlink:href="#SvgjsG1660" transform="translate(450, 100) scale(2)" fill="rgba(193, 197, 201, 0.55)"></use><use xlink:href="#SvgjsG1662" transform="translate(450, 150) scale(2)" fill="rgba(193, 197, 201, 0.55)"></use><use xlink:href="#SvgjsG1664" transform="translate(450, 200) scale(2)" fill="rgba(193, 197, 201, 0.55)"></use><use xlink:href="#SvgjsG1662" transform="translate(450, 250) scale(2)" fill="rgba(193, 197, 201, 0.55)"></use><use xlink:href="#SvgjsG1660" transform="translate(450, 300) scale(2)" fill="rgba(193, 197, 201, 0.55)"></use><use xlink:href="#SvgjsG1660" transform="translate(450, 350) scale(2)" fill="rgba(193, 197, 201, 0.55)"></use><use xlink:href="#SvgjsG1665" transform="translate(450, 400) scale(2)" fill="rgba(193, 197, 201, 0.55)"></use><use xlink:href="#SvgjsG1663" transform="translate(450, 450) scale(2)" fill="rgba(193, 197, 201, 0.55)"></use></g></defs></svg>